<?xml version="1.0" encoding="UTF-8" standalone="no"?>
<svg
   xmlns:osb="http://www.openswatchbook.org/uri/2009/osb"
   xmlns:dc="http://purl.org/dc/elements/1.1/"
   xmlns:cc="http://creativecommons.org/ns#"
   xmlns:rdf="http://www.w3.org/1999/02/22-rdf-syntax-ns#"
   xmlns:svg="http://www.w3.org/2000/svg"
   xmlns="http://www.w3.org/2000/svg"
   id="svg8"
   version="1.1"
   viewBox="0 0 25.4 25.4"
   height="96"
   width="96">
  <defs
     id="defs2">
    <linearGradient
       osb:paint="solid"
       id="linearGradient6352">
      <stop
         id="stop6350"
         offset="0"
         style="stop-color:#ffffff;stop-opacity:1;" />
    </linearGradient>
  </defs>
  <metadata
     id="metadata5">
    <rdf:RDF>
      <cc:Work
         rdf:about="">
        <dc:format>image/svg+xml</dc:format>
        <dc:type
           rdf:resource="http://purl.org/dc/dcmitype/StillImage" />
        <dc:title></dc:title>
      </cc:Work>
    </rdf:RDF>
  </metadata>
  <g
     transform="translate(0,-271.6)"
     id="layer1">
    <path
       d="M 24.519501,284.43073 A 11.773958,11.773958 0 0 1 12.781452,296.20463 11.773958,11.773958 0 0 1 0.97180337,284.50254 11.773958,11.773958 0 0 1 12.637814,272.65726 11.773958,11.773958 0 0 1 24.518625,284.28709"
       id="path6348"
       style="opacity:1;fill:none;fill-opacity:0.08542714;stroke:#24292e;stroke-width:1.26499999;stroke-linecap:round;stroke-linejoin:round;stroke-miterlimit:4;stroke-dasharray:none;stroke-opacity:1" />
    <path
       id="path6306"
       d="m 5.8167181,284.18697 c 0.062865,4.68711 3.2018433,5.09161 7.0440039,5.00545 3.84216,0.0861 6.997135,-0.50543 7.059997,-5.19254 0.03045,-2.6703 -2.168763,-5.11785 -7.052001,-5.00965 -4.8832406,-0.10834 -7.082455,2.52644 -7.0519999,5.19674 z"
       style="fill:#24292e;fill-opacity:1;stroke:#24292e;stroke-width:0.82115436;stroke-linecap:butt;stroke-linejoin:miter;stroke-miterlimit:4;stroke-dasharray:none;stroke-opacity:1" />
    <path
       id="path6323"
       d="m 10.182744,295.55994 c 0,-2.1287 0.235046,-2.68493 0.235046,-4.81362 -2.99e-4,-0.83452 1.765748,-1.51585 2.442932,-1.5539 0.677184,0.028 2.572717,0.64964 2.58325,1.4503 0,2.12869 -0.0013,3.04313 -0.0013,5.17183"
       style="opacity:1;fill:#24292e;fill-opacity:1;stroke:#24292e;stroke-width:0.75065374;stroke-linecap:butt;stroke-linejoin:miter;stroke-miterlimit:4;stroke-dasharray:none;stroke-opacity:1" />
    <path
       id="path6402"
       d="m 10.313263,290.84946 c 0,0 -1.0415077,0.67557 -2.478925,0.37418 -1.4499371,-0.30402 -1.3096207,-2.08136 -2.4555388,-2.17491 0.07823,-0.0935 -1.3976041,-0.0981 -0.9822154,0.18709 0.6509285,0.44691 1.5200953,1.14591 1.8475005,2.19829 0.3274052,1.05237 1.5668675,1.28624 1.7305702,1.30962 0.1637025,0.0234 1.8007283,0.0935 2.3853805,-0.0468"
       style="fill:#24292e;stroke:#24292e;stroke-width:0.26458332px;stroke-linecap:butt;stroke-linejoin:miter;stroke-opacity:1;fill-opacity:1" />
    <path
       id="path4568-3"
       d="m 13.741961,284.59894 c -0.011,1.93164 -0.02199,3.61403 -0.033,5.54567 0,0.31876 0.347745,0.33439 1.152088,0.33019 h 0.446095 c 0.817054,-0.0195 1.400275,-0.0383 1.469076,-0.42103 v -5.75327 0 c 0.07287,-0.59098 0.976691,-0.61437 1.187461,-0.0204 0.294429,0.84004 -0.283384,3.86243 1.178117,3.82977 l 3.261674,0.0677 c 1.856979,-0.008 2.124756,-2.05513 2.163276,-3.02494 0,-0.38246 0.06603,-0.68296 0,-1.14737 -0.476398,-0.55728 -2.00944,-0.52451 -2.32074,0 -0.02201,0.36453 0.022,0.59793 0.03302,0.89689 -0.06294,0.62445 0.359644,1.09538 -0.71558,1.11024 -0.709214,0.006 0.309278,0.002 -0.39994,0.008 -0.886338,-0.01 -0.723642,-0.36213 -0.783795,-1.14633 v -2.79236 c -0.100404,-3.10434 0.251008,-7.94405 -7.530269,-7.838 -7.7812795,-0.10602 -7.4298675,4.73366 -7.5302709,7.838 v 2.79236 c -0.060143,0.7842 0.1025441,1.13649 -0.7837974,1.14633 -0.7092153,-0.006 0.3092778,-0.002 -0.3999384,-0.008 -1.0752241,-0.0149 -0.7518696,-0.38657 -0.8147999,-1.01102 0.010997,-0.29896 0.055043,-0.53236 0.03303,-0.89689 -0.3112962,-0.52451 -1.8443401,-0.55728 -2.3207389,0 -0.0660295,0.46441 0,0.76491 0,1.14737 0.038518,0.96981 0.5241378,2.79824 2.3811151,2.80659 l 3.024433,-0.0277 c 1.4615022,0.0328 1.0023103,-2.91031 1.2967396,-3.75035 0.2107675,-0.59392 1.1146072,-0.5705 1.1874594,0.0204 v 0 5.75326 c 0.068814,0.38275 0.6520207,0.40159 1.4690744,0.42103 h 0.446093 c 0.804344,0.004 1.152091,-0.0123 1.152091,-0.33018 -0.011,-1.93164 -0.022,-3.61403 -0.03302,-5.54567 0.0787,-0.90198 0.631906,-0.83534 0.892538,-0.83593 0.260634,5.9e-4 0.813852,-0.0659 0.892537,0.83593 z"
       style="opacity:1;fill:#e886ae;fill-opacity:1;stroke:none;stroke-width:0.8739782;stroke-linecap:butt;stroke-linejoin:miter;stroke-miterlimit:4;stroke-dasharray:none;stroke-opacity:1" />
    <path
       style="fill:#1f1f1f;fill-opacity:1;stroke:none;stroke-width:0.86041772;stroke-miterlimit:4;stroke-dasharray:none;stroke-opacity:1"
       d="m 7.2047708,279.53339 a 1.2886531,1.3242948 0 0 1 -1.2847228,1.32428 1.2886531,1.3242948 0 0 1 -1.2925595,-1.31621 1.2886531,1.3242948 0 0 1 1.2768383,-1.33231 1.2886531,1.3242948 0 0 1 1.3003481,1.30808"
       id="path3727" />
    <path
       style="fill:#1f1f1f;fill-opacity:1;stroke:none;stroke-width:0.86605376;stroke-miterlimit:4;stroke-dasharray:none;stroke-opacity:1"
       d="m 21.019293,279.48944 a 1.2564185,1.3070871 0 0 1 -1.252586,1.30708 1.2564185,1.3070871 0 0 1 -1.260227,-1.29911 1.2564185,1.3070871 0 0 1 1.244899,-1.315 1.2564185,1.3070871 0 0 1 1.267821,1.29109"
       id="path3727-8" />
  </g>
</svg>
